/* XPM */
static char *_ed38a94923742eeec50d865e6c40cf4Fs4rM4etfqunWcQa[] = {
/* columns rows colors chars-per-pixel */
"32 32 168 2 ",
"   c None",
".  c #1C1616",
"X  c #171E1B",
"o  c #1B1C1B",
"O  c #211C1E",
"+  c #15221C",
"@  c #221F21",
"#  c #1E2422",
"$  c #172922",
"%  c #1C2C24",
"&  c #173026",
"*  c #1D3429",
"=  c #1D3D2D",
"-  c #212422",
";  c #292726",
":  c #212E25",
">  c #252F2C",
",  c #2B2C29",
"<  c #213426",
"1  c #23342B",
"2  c #29332C",
"3  c #223A2D",
"4  c #283B2B",
"5  c #293731",
"6  c #253C31",
"7  c #2A3B33",
"8  c #1F402F",
"9  c #1E4231",
"0  c #1E4B37",
"q  c #165233",
"w  c #1F5637",
"e  c #1A5339",
"r  c #1C5B3B",
"t  c #23432E",
"y  c #234434",
"u  c #2B4236",
"i  c #244B36",
"p  c #2B4937",
"a  c #2D4539",
"s  c #234E39",
"d  c #2C4B3B",
"f  c #324D3B",
"g  c #225237",
"h  c #23533C",
"j  c #2B543E",
"k  c #235C3D",
"l  c #2C5B3E",
"z  c #32563D",
"x  c #305E3F",
"c  c #15623D",
"v  c #1E653E",
"b  c #166D3F",
"n  c #24633D",
"m  c #28623E",
"M  c #1C5D41",
"N  c #334E42",
"B  c #255540",
"V  c #2D5341",
"C  c #245C42",
"Z  c #2B5C43",
"A  c #2C5E49",
"S  c #335442",
"D  c #3B5343",
"F  c #345A44",
"G  c #3B5E45",
"H  c #3B574A",
"J  c #325C4A",
"K  c #3C5A49",
"L  c #0E6F42",
"P  c #146240",
"I  c #1E6443",
"U  c #166943",
"Y  c #1C6B44",
"T  c #1F6448",
"R  c #1D6C49",
"E  c #0D7245",
"W  c #127043",
"Q  c #1D7045",
"!  c #1A744B",
"~  c #1A794B",
"^  c #1E7650",
"/  c #167E53",
"(  c #1E7C53",
")  c #246443",
"_  c #2C6344",
"`  c #246D45",
"'  c #2C6946",
"]  c #236648",
"[  c #2C6449",
"{  c #246B4A",
"}  c #2B6C4D",
"|  c #336144",
" . c #396246",
".. c #306944",
"X. c #34654C",
"o. c #3B634D",
"O. c #346B4D",
"+. c #3D6C4F",
"@. c #247046",
"#. c #24724A",
"$. c #257049",
"%. c #237648",
"&. c #20754F",
"*. c #22744E",
"=. c #25744F",
"-. c #24714C",
";. c #29724B",
":. c #2A704E",
">. c #29734F",
",. c #2D774F",
"<. c #2A724D",
"1. c #33714F",
"2. c #37724F",
"3. c #256E50",
"4. c #2E6D51",
"5. c #376652",
"6. c #336E51",
"7. c #336D53",
"8. c #3B6D52",
"9. c #217351",
"0. c #247553",
"q. c #297452",
"w. c #2B7352",
"e. c #257C50",
"r. c #247A54",
"t. c #2B7F52",
"y. c #2C7A56",
"u. c #2C7F58",
"i. c #2C7B59",
"p. c #337554",
"a. c #397652",
"s. c #3A7151",
"d. c #367956",
"f. c #3E7857",
"g. c #3D7059",
"h. c #347C5A",
"j. c #3B7B58",
"k. c #3E7F58",
"l. c #3B7C5E",
"z. c #466652",
"x. c #44755F",
"c. c #427A5F",
"v. c #497B65",
"b. c #1F8054",
"n. c #1B875B",
"m. c #258155",
"M. c #2F8057",
"N. c #27825A",
"B. c #2B835C",
"V. c #26885D",
"C. c #26885D",
"Z. c #35825A",
"A. c #36805C",
"S. c #3E815F",
"D. c #35895E",
"F. c #2B8E63",
"G. c #2E8962",
"H. c #378561",
"J. c #3B8467",
"K. c #378961",
"L. c #338962",
"P. c #3F8965",
"I. c #3F896A",
"U. c #438464",
"Y. c #498D69",
"T. c #4F906E",
"R. c #4B9A73",
"E. c #509971",
/* pixels */
"                                                                ",
"            O.O.+.                                              ",
"      D S I 9.&.R k _                       ' Y b k : ) k |     ",
"    _ Z f S a V [ =.! g  .  z.G 1. .F f | n v Q l i : p l ) x   ",
"  ' ' H a y s y 3 d ) r y s Z g L c p 3 r Y v 3 < 1 % 3 : p m x ",
"6.R X.u k _ ) R k y 6 ) 6 P X.G ~ Y 2 q W ~ = < ) C _ #.w % z n ",
"[ R 2 r I Z } K.{ ) y s s E B f %.{ 3 b ! k 2 _ ,.C | O.D.k 7 ) ",
"[ C > U n.8 . y u.&.k y C ~ k a ` k < Q #.6 2 ..M.k ; , l #.* k ",
"A h 5 I F.C - # ] b.) y ) e.g y ` h 3 Q #.u t @.m.k , - 4 1 = v ",
"A C C 7 j a 5 * >.V.I y { ;.y 6 k r t ` { i t t.Z.Z t # o X r v ",
"O.{ ] { j 7 j >.R.A.i Z _ ' 3 r e I * ` q.) 3 k.j.6 a.{ k c r _ ",
"  w.R ] } V B.E.Y.j 6 O.' f y ] w.} 1 g p.>.3 i p.j  .p.) w l   ",
"    r.! -.N } s.F 4 O.d.l 4 Z j.l.[ % < O.h.j 1 Z O._ ) g k     ",
"        >.i a a A 2.a.l f 6.8.v.p.} } d.u ' -.k k i s Z 2.      ",
"          d j } p.8.X.X.f U.f.c.p.q.H.P.8.i ) ' } j s D         ",
"          a.) [ Z p.8.w.u 8.s.h.7.4.l.S.U.} l O.p.l k           ",
"            K Z k h.1 o % s Z Z V } 7.7.w.9.e ' y.R k           ",
"            o.C I y.[ - @ # 3 p.[ h.J [ A * + j N.M Z           ",
"            x.] 3.{ p.* O , o A O.J.V % 2 # & ^ ( y Z           ",
"              h.( ^ ] } 0 X * w.8.I.* > # % h.V./ k f.          ",
"                u.^ ! ] C } } Z Z 7.[ $ = ] i.B./ O.            ",
"                    [ C h H.l.u 6 y i.T { I { ! w.              ",
"                    5.B R K.Y.d y d l.l.y.C ] }                 ",
"                    g.C ! ( B.O.A 6.T.l.L.R X.                  ",
"                      [ R r.X.X.[ h.G.] *.q.                    ",
"                      d.{ C [ 6.i.r.r.r V                       ",
"                        6.s s ) } 0 i d o.                      ",
"                          j 0 s k 9 9 O.                        ",
"                          J y 9 h y = X.                        ",
"                            N 7 s 6 S                           ",
"                              N Z D                             ",
"                                                                "
};
