/* XPM */
static char *portal1710715577[] = {
/* columns rows colors chars-per-pixel */
"32 32 228 2 ",
"   c #332826",
".  c #3C322D",
"X  c #3A3839",
"o  c #45362B",
"O  c #4B3D35",
"+  c #4A3D39",
"@  c #473A35",
"#  c #573F32",
"$  c #6D3B34",
"%  c #39493F",
"&  c #584639",
"*  c #4C423F",
"=  c #684937",
"-  c #784236",
";  c #78553E",
":  c #353E5D",
">  c #413F41",
",  c #36524E",
"<  c #377551",
"1  c #374567",
"2  c #394A73",
"3  c #394D7A",
"4  c #374873",
"5  c #4D494C",
"6  c #454645",
"7  c #544642",
"8  c #5D4B45",
"9  c #564B4A",
"0  c #5B5149",
"q  c #4C4B50",
"w  c #5D5353",
"e  c #585659",
"r  c #425940",
"t  c #664A44",
"y  c #67564A",
"u  c #785947",
"i  c #6C5B54",
"p  c #6C5C5B",
"a  c #655956",
"s  c #735D58",
"d  c #764F44",
"f  c #486F57",
"g  c #6E615E",
"h  c #73645D",
"j  c #6B7F55",
"k  c #455579",
"l  c #555D78",
"z  c #505467",
"x  c #615D63",
"c  c #5E637B",
"v  c #676465",
"b  c #6C6464",
"n  c #6B666B",
"m  c #726564",
"M  c #756A67",
"N  c #7C6964",
"B  c #746C6B",
"V  c #7A6968",
"C  c #6C6A77",
"Z  c #776D73",
"A  c #787577",
"S  c #7B706C",
"D  c #953C2D",
"F  c #964736",
"G  c #9C5739",
"H  c #88442E",
"J  c #BA4B3B",
"K  c #B2503B",
"L  c #866A3E",
"P  c #CE513F",
"I  c #885C47",
"U  c #814E55",
"Y  c #8F5457",
"T  c #AB5946",
"R  c #B35545",
"E  c #B95545",
"W  c #A65954",
"Q  c #B55448",
"!  c #976249",
"~  c #886759",
"^  c #977658",
"/  c #8F6D51",
"(  c #A67658",
")  c #B97E57",
"_  c #AC6B4E",
"`  c #846C67",
"'  c #956B63",
"]  c #84726C",
"[  c #8A7468",
"{  c #97766C",
"}  c #847573",
"|  c #837973",
" . c #857A7A",
".. c #8B7E7B",
"X. c #837779",
"o. c #9D7373",
"O. c #A27864",
"+. c #BA7E66",
"@. c #AC7E7A",
"#. c #C35746",
"$. c #C7775A",
"%. c #CE6B52",
"&. c #788A6F",
"*. c #BA8359",
"=. c #868C6B",
"-. c #8A8878",
";. c #96857D",
":. c #A6856B",
">. c #B58668",
",. c #B7936F",
"<. c #A4877C",
"1. c #B8937A",
"2. c #BC8F73",
"3. c #C4987A",
"4. c #D69473",
"5. c #D08365",
"6. c #D2A67E",
"7. c #4B5E87",
"8. c #506187",
"9. c #797786",
"0. c #69789E",
"q. c #76798D",
"w. c #897F85",
"e. c #857A86",
"r. c #8F7D90",
"t. c #A57F90",
"y. c #789484",
"u. c #7B8988",
"i. c #6F81AA",
"p. c #858484",
"a. c #8C8384",
"s. c #8B888B",
"d. c #938482",
"f. c #958983",
"g. c #9B8B85",
"h. c #948A8C",
"j. c #9C8D8C",
"k. c #958686",
"l. c #9E918B",
"z. c #9B8D91",
"x. c #938D97",
"c. c #9A939A",
"v. c #999999",
"b. c #9B9294",
"n. c #888492",
"m. c #A48A87",
"M. c #B38D86",
"N. c #A5918C",
"B. c #B99588",
"V. c #A49493",
"C. c #AB9A94",
"Z. c #A29699",
"A. c #A49B9C",
"S. c #AD9D9C",
"D. c #A69B93",
"F. c #B19D9C",
"G. c #B89996",
"H. c #AEA29C",
"J. c #B1A29E",
"K. c #BAA49A",
"L. c #9696A7",
"P. c #979DBB",
"I. c #838FB2",
"U. c #AC9EA1",
"Y. c #A199A2",
"T. c #A08EA2",
"R. c #ACA2A4",
"E. c #AAA5A9",
"W. c #B3A4A3",
"Q. c #B9A5A3",
"!. c #BCABA4",
"~. c #B4AAAB",
"^. c #BCADAC",
"/. c #B5AAA3",
"(. c #BEB2AC",
"). c #AAA6B6",
"_. c #B6AEB8",
"`. c #BDBBBC",
"'. c #B8B2B2",
"]. c #C59B88",
"[. c #C09D93",
"{. c #C58585",
"}. c #C5A69B",
"|. c #C7A796",
" X c #D6B499",
".X c #CFA88B",
"XX c #C5AFA4",
"oX c #C8ABA6",
"OX c #C4B3AD",
"+X c #C9B5AE",
"@X c #CBB5AB",
"#X c #D2B3A4",
"$X c #D6BBA8",
"%X c #C4B6B4",
"&X c #C5BAB4",
"*X c #CCBCB4",
"=X c #CCBDBB",
"-X c #C6B7B7",
";X c #D2BDB5",
":X c #D3BFB8",
">X c #D3C1B6",
",X c #D4C5B9",
"<X c #D6CBBA",
"1X c #DBC6B9",
"2X c #D4C9BE",
"3X c #E1C8B9",
"4X c #B1ADC2",
"5X c #BAB3C2",
"6X c #C6BCC2",
"7X c #CEC3C2",
"8X c #C3C3C3",
"9X c #D3C3C2",
"0X c #DCC9C3",
"qX c #DCCCCB",
"wX c #D6C8C6",
"eX c #DCD4D6",
"rX c #E3CDC6",
"tX c #E0CECB",
"yX c #E3D1CC",
"uX c #EBD3CB",
"iX c #E2D5D3",
"pX c #E9D5D0",
"aX c #EEDBD5",
"sX c #E6DCD9",
"dX c #F2DBD5",
"fX c #E2DEE5",
"gX c #E8E7EC",
"hX c #EBEBF0",
/* pixels */
"E.'.`.-X_.P.0.4 1 2 2 4 4 4 3 2 3 3 3 3 k 7.I.I.0.7.4 1 1 1 : : ",
"/.OX>X6X8X8XT.e.t.o.Y U #.s #.Q W E W Y ' <.oXG.r.k 8.0.I.l 1 : ",
"~.(.&X-X`.M.J F R #.P K #.E D Q #.P #.E R E T F #.t.P.4X4X_.T.z ",
"E.~.'.'.%XOXR D K E $.*.$.+.4.{.*.5.( %.T %.T D E {.4X4X4X).L.l ",
"/.(.(.OX=X+X5.( 4.3.B.{ b ;.J.,.#X X6. X6..X3.) %.oX6X5X).).L.l ",
"H.(.(.>X*X;X X].1.( { / u ! *.L ^ *.; ^ *.,.,.6..X$X6X6X5X_.L.C ",
"H./.(.K.*.:.; ; ; * o & 8 & ( & ; *.%   & & = = $ ! >.F.)._.).Z.",
"H./.(.K.= o & ; _ :.:.:.=.<.K.M.B. X,.,.,.^ I # @ o # g._.pX^.z.",
"H./.(.XX:.:.3. X>X>X>XH.q.q.E.R.&XXX1X3X#X3.( ( O./ O.+XrXtX~.U.",
"/./.(.(./.>X<X<X<X>XOX>XU.9.E.L.B.( |.3X1X1.XX,X0X:XrXpXtX0XA.U.",
"H./.(.>X>X>X<X<X<X<XOX*X^.9.L.c.{ +.( $X3X>XsXfXsXdXdXdXyX'.~.s.",
"D.H.H.(.(.>X,X,X<X<X>XOXS.9.n.u.x.o.I  X.XyXiXqXaXpXrX6X^.R.E.e.",
"l.v.H./.R.OX>X,X<X>X1X+XU.C x u.x.`.!.3X;XyX=X=X6X-XOXS.Z.A.h.A ",
"N.D.S.Q.!.R.*XOXXX>X>X@X!.C , c q.!.0XpXdXtXoX*X+XOX!.b.x.a.A m ",
"l.S.S.W.K.W.+XXXJ.U.*X;XOXA , , B ].%X1X0X=X:X:X;X;X!.h.h.| B M ",
"N.D.J.Q.W.S.Q.F.Z.p.W.;XXXu.< &.[ :XuXrXpXoX;X+XQ.N.d.A m S M B ",
"g.C.U.S.S.V.z.S.Z.x h.oXK.&.&.=.=.3XdXuX*X+X!.V.N.S x m a M V a ",
"k.N.z.z.z.w.r.z.Z q Z S.H.&.&.&.&.<X;XJ.z.F.N.w.X.m M h w y 9 7 ",
"g.z.z.k.w.e.C x q > A Z.D.s.&.< &.m.V...} } } X. .V m p y 7 @ . ",
"d.N.z.d.X.e x e > q A b.s.;.r , & $ i S V N V } ] N p s a 0 @ . ",
"d.m.g...S e q 6 X > n e.w.C.6 % 6 - $ b B N N ` ` s s i y 0 +   ",
"..d.k. .w.Y.h.Z.x 6 q Z !.h 5 * 9 i $ 8 m N ~ ' ` s i a y 8 +   ",
"..a.j.Z.~.9XqXoXd.w.~.U.m.* @ 7 w g ` - $ I / { N x a y t 7 @   ",
"} ;.S.b.~.wX=Xs ' ] aX}.i 8 7 7 w g B ' H H ! ~ N w 5 7 7 @ .   ",
"..k.J.!.^.wX^.7 O.o.;X{ d.s a.] ..W.U.~ G G I s X.B n v m x g 5 ",
";.g.H.OX%X=X~.7 u ].:X|.,X` qXrXoXM.U.` d t t y d.Z A A A v A B ",
"] ;.D.Z.~.~.U.N [.#X3X#X|.g.iX#XB.d =XOXd.8 8 i R.E.'.'.'.v.E.v.",
"m l.D.l.b.x.w.{ B.#X3X:X|.iXgXB.= @.tX6X9X-Xk.g s.s.p.p.&.p.s.A ",
"b d.C.h.z.c.x.{ d [.#XoX}.hXgX=X& ;X9XrXpXaX7Xa.n v e e x x v e ",
"a -.D.k.h.b.~.@.N s o.B.0XhXfX6XM.}.yXpXqXwX-X`.eX8X`.8X8X8X8Xh.",
"9 | f.-.e.Z.m.qXeXeXwXtXiXqXW.[.G.B.{ ' ' m.N.-./.'.v.'.v.v.8XB ",
"6 h A B n w.W.6X=X%X=X=X6X9X7XiXqXwX0X6X-X'.<X&X8X'.s.p.p.p.u.v "
};
