/* XPM */
static char *_3bddd2cd5b6412d810df774dc08a96ePkQCmH6XVR43Vw0h[] = {
/* columns rows colors chars-per-pixel */
"32 32 207 2 ",
"   c None",
".  c #3B2715",
"X  c #3F362A",
"o  c #3B3B38",
"O  c #432B14",
"+  c #502F14",
"@  c #4B3115",
"#  c #5D3C17",
"$  c #513719",
"%  c #543817",
"&  c #4B3827",
"*  c #5A3B23",
"=  c #563D2B",
"-  c #463E36",
";  c #633230",
":  c #6A3A2E",
">  c #5E411B",
",  c #65461E",
"<  c #6C4A1F",
"1  c #6A401C",
"2  c #55432D",
"3  c #5A452A",
"4  c #5C4A35",
"5  c #544538",
"6  c #4A423B",
"7  c #6C4C21",
"8  c #624A2C",
"9  c #654729",
"0  c #6E532F",
"q  c #755122",
"w  c #7B5524",
"e  c #7E5926",
"r  c #76562E",
"t  c #664938",
"y  c #764C36",
"u  c #645239",
"i  c #6B563B",
"p  c #785738",
"a  c #7B623F",
"s  c #4D4946",
"d  c #494643",
"f  c #524C44",
"g  c #574D47",
"h  c #5B5244",
"j  c #555452",
"k  c #5E5C57",
"l  c #624B43",
"z  c #65554B",
"x  c #745B44",
"c  c #605D56",
"v  c #645D59",
"b  c #7A6649",
"n  c #68615A",
"m  c #7A6557",
"M  c #6A6866",
"N  c #7C7466",
"B  c #92321E",
"V  c #AF3222",
"C  c #835C26",
"Z  c #845E2B",
"A  c #8B5E29",
"S  c #86573A",
"D  c #814A29",
"F  c #BB432D",
"G  c #AA5334",
"H  c #B2503A",
"J  c #8C642C",
"K  c #8C6127",
"L  c #92652B",
"P  c #92682E",
"I  c #996B2D",
"U  c #8C6332",
"Y  c #876233",
"T  c #9B6E31",
"R  c #946C39",
"E  c #9C733C",
"W  c #A16D2D",
"Q  c #A16F30",
"!  c #A37332",
"~  c #AC7B36",
"^  c #AD7C3A",
"/  c #AE7532",
"(  c #B17F39",
")  c #B57D35",
"_  c #C6543C",
"`  c #CD4634",
"'  c #875C4B",
"]  c #856A44",
"[  c #8C6D4A",
"{  c #876949",
"}  c #986B4A",
"|  c #89714E",
" . c #96744B",
".. c #997848",
"X. c #84675B",
"o. c #8A6F50",
"O. c #9B6F5C",
"+. c #966754",
"@. c #887351",
"#. c #977C56",
"$. c #BE6048",
"%. c #AD724C",
"&. c #BB7145",
"*. c #AB6651",
"=. c #8F7161",
"-. c #957265",
";. c #807E72",
":. c #A17668",
">. c #5F8337",
",. c #658435",
"<. c #B38139",
"1. c #BA863C",
"2. c #BE893F",
"3. c #C38C3E",
"4. c #C58B3E",
"5. c #8D8C4D",
"6. c #9A805A",
"7. c #8A9657",
"8. c #BE8D49",
"9. c #B0884F",
"0. c #A1855C",
"q. c #AB8454",
"w. c #B58D58",
"e. c #86A34A",
"r. c #9C8560",
"t. c #A48A63",
"y. c #A98B66",
"u. c #B7986B",
"i. c #AF8171",
"p. c #B38270",
"a. c #AC977A",
"s. c #BC9D72",
"d. c #B59770",
"f. c #B98D64",
"g. c #95AB65",
"h. c #A3AF7A",
"j. c #CD9949",
"k. c #C89245",
"l. c #D59B46",
"z. c #D39949",
"x. c #CC9B52",
"c. c #C29855",
"v. c #D49D53",
"b. c #DDA34C",
"n. c #D0A14C",
"m. c #DDAC58",
"M. c #E6A94E",
"N. c #E2AB52",
"B. c #E9AB50",
"V. c #EAB35C",
"C. c #F0B554",
"Z. c #F5BA5A",
"A. c #DA8E64",
"S. c #C69F6B",
"D. c #C29A7A",
"F. c #D29373",
"G. c #C68B63",
"H. c #D3A96B",
"J. c #DAB06E",
"K. c #C2A175",
"L. c #CFA67B",
"P. c #D6AF78",
"I. c #C1BB7D",
"U. c #D7B17F",
"Y. c #ECB86E",
"T. c #F7C65C",
"R. c #EAC46B",
"E. c #F8CA64",
"W. c #F5C362",
"Q. c #F8D37F",
"!. c #F0C971",
"~. c #9E9786",
"^. c #A29484",
"/. c #B5AA85",
"(. c #C99983",
"). c #D39885",
"_. c #D9A48D",
"`. c #D3AF80",
"'. c #C3B686",
"]. c #DBB686",
"[. c #DAB887",
"{. c #DEBC8A",
"}. c #D5B486",
"|. c #C9B69C",
" X c #E3BE8B",
".X c #E5B499",
"XX c #DDC487",
"oX c #DED09E",
"OX c #D1D68C",
"+X c #E3C08C",
"@X c #E6C291",
"#X c #EBC694",
"$X c #ECC995",
"%X c #EECD9A",
"&X c #E3C991",
"*X c #F2CE9B",
"=X c #EBD198",
"-X c #F5D19D",
";X c #FADD9C",
":X c #D2D7A7",
">X c #EDDBAC",
",X c #FADAA4",
"<X c #F9DCA8",
"1X c #EBDEB5",
"2X c #F4DCB4",
"3X c #FDE3AD",
"4X c #FCE9B1",
/* pixels */
"                                                                ",
"                                                                ",
"                                m.C T                           ",
"                              V.&X} y.%                         ",
"                            !.H.#X6.u 8                         ",
"                            d.I.=Xs.x & x                       ",
"                          G Z ,.OX$X0.2 b |                     ",
"                      d.f.e.e.Y g.=X0.3 x #.                    ",
"                      $._ G &.*.7.XX[ & { [             E ^.    ",
"                      ` V B F D 5.P.0 8 p             <.<.a.    ",
"                    _ F H G.S.+XU.U.s.] r C K C q # q ! 3.f.    ",
"                    Y.A.-X-X X*X{. X`.t.@.8 e J e , q L 1.(     ",
"        y = g       Y.-X,X,X#X*X+X X[.u.#.i 3 C e 7 7 w ! !     ",
"  9 t O.p.x g s s x y. X-X,X$X*X@X X{.s.r.b 4 9 q , < q w C     ",
"  y D._.' X.t X.j f 4 ].*X,X*X-X#X X{.K.t.b 4 2 > # , > ,       ",
"  * (..X).z ; :.n c 5 L.*X3X*X-X#X X{.K.t.| u 2 @ @             ",
"} y (.+.).z : :.M c 2 ].-X3X*X*X$X X XK.t.@.u 3 $ O             ",
"} y :.-.i.l -.m M f 2 #X,X3X*X%X$X X{.D.t.@.i 8 $ @             ",
"  y +._.O.v v j j - m *X3X3X*X%X#X X{.s.t.{ p Z w % .           ",
"    { } =.M j d 6 X y.3X4X3X$X*X@X].[.d.6.a U ! T w $           ",
"      S * 5 n f 2  .J.4X4X<X@X%X X`.`.t.#.Y ^ <.~ J 7 , #       ",
"        | S h./.x.N.W.Q.;X-X[.@X].u.K.R E ( 2.1.^ P q Z w A K   ",
"            g.1XR.E.T.C.N.H.9.w.w.U A / 4.4.3.1.( T w L Q 3.2...",
"            >.:XXXE.E.M.1.0 O O + + * P 8.) 1.~ ! L C ! <.z.v.|.",
"            F.7.:XR.E.C.0.;.. 1 # & i n.J r q. .U A I ~ 3.b.x.t.",
"            2X%.'.oXW.c.k 5 T 3.) 2 ] b.w   z.E  .Z P ! 1.l.c.a.",
"          1X'.    .X}.~.h 8.M.b.k.z ] N.! W z.J o.Y w w ^ j.c.a.",
"                  >Xt.   .Z.Z.B.z.N i b.l.3.<.w   #.J <         ",
"                          Y.C.B.l.h - 1.k.~ Z       q.w         ",
"                              m.j.b o * E             Z         ",
"                                                                ",
"                                                                "
};
