/* XPM */
static char *wall1710716026[] = {
/* columns rows colors chars-per-pixel */
"32 32 38 1 ",
"  c #0C0C0B",
". c #2F2E2B",
"X c #302F2E",
"o c #32312F",
"O c #353432",
"+ c #383736",
"@ c #373837",
"# c #393936",
"$ c #3B3739",
"% c #3C3B3A",
"& c #403F3E",
"* c #423F41",
"= c #464444",
"- c #494747",
"; c #4B4847",
": c #4A4749",
"> c #4D4B4B",
", c #514F4F",
"< c #4F504E",
"1 c #51504F",
"2 c #524E51",
"3 c #545353",
"4 c #585757",
"5 c #575857",
"6 c #5A5857",
"7 c #5B5659",
"8 c #5C5B5C",
"9 c #636262",
"0 c #686767",
"q c #6D6D6C",
"w c #737372",
"e c #7B7C7B",
"r c #7F8080",
"t c #868786",
"y c #8D8D8D",
"u c #929493",
"i c #9C9D9D",
"p c #9FA1A0",
/* pixels */
"                                ",
" ;>;;>;>=%%&%%&%%%*%%&%=2:::=>: ",
" &%%%%%$%+%@%++$+@+%@%@@++++$$% ",
" ;;::=8;2=8-8=84>228&0=9:0wq0q3 ",
" <;=:>=:q@>%;;=5$:&2%7=7=835386 ",
" 3q593,;5==;<;-5-:=:-:2:37::,,1 ",
" =><>>3><<><<<<32<<<<<33<333552 ",
" OOOOO%%<@o@@OOOOOOOO@OOOOO+O%+ ",
" OO>&@9teq@OOOoOOOOOOOOOOO+@O@@ ",
" O=rw8py0=OOOOO#@O+OO++OOO@@O%@ ",
" O3qiuq%OOOOO#O#+OOooOOo.OOOO%O ",
" o@>u5%oOOOoO#OOOoOoOO++O++O+%@ ",
" oO>w@OoOOOOOOOOOoOoo+ooO+OOO%+ ",
" oO%OOOX@OOOO..OOOooooooooOO.++ ",
" oOoXOOOOOOOOOoOOOOOo+OOOoOOO@+ ",
" o@OoOOO@@OOOOOOOOOO+O+OOOoOO+O ",
" OOOO.#.OOOoOoooOOoOOOOOOOoOo#O ",
" .oooOO.OOOOO#OOOooO#OOOOOO#O## ",
" oOoOo#.OOOOOOoOOo.OOO#OoOOOO#. ",
" .OoO.O.OOOoOOoOOOoOOO#OOOoOO#O ",
" oO.oo#.OOOOOOOOOOOO#O#OOOOOO#O ",
" oOOOO#.O#O#OOo#OO###O#OoOOo.#o ",
" oOooO#oO###O#OO######%Oo#OOO%O ",
" oOOO#Oo####O&O&#####&#Oo#O#O%o ",
" oOOOOO.OOOOO#O##O##%O@OOOOOO#o ",
" oOoOOOoOOO###OO######OOOoO##&O ",
" o#OOOO.O+OOO#O&###OOO+OooOOO&O ",
" O#ooOOoO+OOOOOOOOOOOO+O#oOOo&O ",
" O++Oo+OO+O+#OOO#O#O+O+++OO##&O ",
" oO@@++O##O+OOOOOOOO+++++o+%#&O ",
" ooOOo+ooOOOoooOOoooOOOoooO#O#O ",
"                                "
};
